<!DOCTYPE svg PUBLIC "-//W3C//DTD SVG 1.1//EN" "http://www.w3.org/Graphics/SVG/1.1/DTD/svg11.dtd">
<!-- Uploaded to: SVG Repo, www.svgrepo.com, Transformed by: SVG Repo Mixer Tools -->
<svg fill="#ffffff" height="512" width="512" version="1.1" id="Capa_1" xmlns="http://www.w3.org/2000/svg" xmlns:xlink="http://www.w3.org/1999/xlink" viewBox="0 0 488.4 488.4" xml:space="preserve" stroke="#0284c7">
<g id="SVGRepo_bgCarrier" stroke-width="0"/>
<g id="SVGRepo_tracerCarrier" stroke-linecap="round" stroke-linejoin="round"/>
<g id="SVGRepo_iconCarrier"> <g> <path d="M12.7,297.1L0.1,174.2c-0.6-6.1,1.5-12.3,6.2-16.1c5.7-4.6,14.7-6.3,21.4,1.3c4.7,5.4,7,22.2,7.8,26.7 c2.7,16.1,5.4,39.1,5.8,55.3c0,1.1,0.1,2.6,0.2,3.7c0.4,7.1,2.1,13.7,5.1,20.2c16.4,35.6,49.3,80.6,49.3,80.6l1.8,2.7 c1.4,2,4.1,2.7,6.3,1.5c2.4-1.3,3.2-4.4,1.8-6.7l-43.6-71.1c-4.7-7.9-2-19.1,6.5-24.3c8.5-5.2,19.7-2.6,24.4,5.3l45.3,58.2 c3,3.8,8.5,9.3,12.4,12.1c40.7,29.3,46.2,59.1,49.8,74.3c0,0,0.3,3.4,0.4,8.3l0,0l0,0c0,4.1-0.1,9.2-0.8,14.3l-2.7,48.9 c0,3.6-2.9,6.5-6.5,6.5l-76.6-0.4c-3.6,0-6.5-2.9-6.5-6.5l-1.4-40.4L33.8,341c-10.7-11.4-18-24.2-20.3-39.6L12.7,297.1z M54.9,233.1c0,1.4,0.1,2.7,0.1,4.1c1.5-1.3,3.1-2.6,4.9-3.7c2.2-1.4,4.5-2.4,6.9-3.2c0.1-0.2,0.2-0.3,0.3-0.4 c-1.7-12.7-6.2-36.7-9.5-49.1C55.9,174.6,52.3,170,46,168c1.3,4.3,2.2,8.7,2.9,12.9C51.2,194.8,54.6,219.8,54.9,233.1z M79.5,226.7 c0.1,0.6,0.1,1.2,0.1,1.8c3.7,0.1,7.4,0.9,10.9,2.2c-1.2-8.2-6.7-24.6-8.7-32.3c-1.6-6.2-5.2-10.7-11.4-12.8 c2,9.2,7.2,26.1,8.4,35.1L79.5,226.7z M460.7,159.4c-4.7,5.4-7,22.2-7.8,26.7c-2.7,16.1-5.4,39.1-5.8,55.3c0,1.1-0.1,2.6-0.2,3.7 c-0.4,7.1-2.1,13.7-5.1,20.2c-16.4,35.6-49.3,80.6-49.3,80.6l-1.8,2.7c-1.4,2-4.1,2.7-6.3,1.5c-2.4-1.3-3.2-4.4-1.8-6.7l43.6-71.1 c4.7-7.9,2-19.1-6.5-24.3c-8.5-5.2-19.7-2.6-24.4,5.3L350,311.5c-3,3.8-8.5,9.3-12.4,12.1c-40.7,29.3-46.2,59.1-49.8,74.3 c0,0-0.3,3.4-0.4,8.3l0,0c0,4.1,0.1,9.2,0.8,14.3l2.7,48.9c0,3.6,2.9,6.5,6.5,6.5l76.6-0.4c3.6,0,6.5-2.9,6.5-6.5l1.4-40.4 l72.7-87.6c10.7-11.4,18-24.2,20.3-39.6l0.7-4.5L488.3,174c0.6-6.1-1.5-12.3-6.2-16.1C476.4,153.5,467.4,151.8,460.7,159.4z M428.5,233.6c1.8,1.1,3.4,2.3,4.9,3.7c0-1.4,0.1-2.7,0.1-4.1c0.3-13.3,3.7-38.4,6-52.3c0.7-4.2,1.5-8.5,2.9-12.9 c-6.3,2.1-10,6.6-11.6,12.8c-3.3,12.4-7.8,36.4-9.5,49.1c0.1,0.2,0.2,0.3,0.3,0.4C424,231.2,426.3,232.2,428.5,233.6z M408.8,226.7 l0.8-6.1c1.2-8.9,6.3-25.8,8.4-35.1c-6.2,2.1-9.8,6.6-11.4,12.8c-2,7.7-7.5,24.1-8.7,32.3c3.5-1.3,7.2-2,10.9-2.2 C408.8,227.9,408.8,227.3,408.8,226.7z M386.5,221.1c0-6-4.8-10.8-10.8-10.8H116.2c-6,0-10.8,4.8-10.8,10.8s4.8,10.8,10.8,10.8 h259.5C381.7,231.9,386.5,227.1,386.5,221.1z M347.8,260.2c0-6-4.8-10.8-10.8-10.8H135.4c-6,0-10.8,4.8-10.8,10.8 c0,6,4.8,10.8,10.8,10.8H337C343,271,347.8,266.2,347.8,260.2z M171.5,288.6c-6,0-10.8,4.8-10.8,10.8s4.8,10.8,10.8,10.8h129.3 c6,0,10.8-4.8,10.8-10.8s-4.8-10.8-10.8-10.8H171.5z M324.8,118.2c8.5,0,15.3-6.9,15.3-15.3c0-8.5-6.9-15.3-15.3-15.3 c-8.5,0-15.3,6.9-15.3,15.3C309.4,111.3,316.3,118.2,324.8,118.2z M163.6,118.2c8.5,0,15.3-6.9,15.3-15.3c0-8.5-6.9-15.3-15.3-15.3 c-8.5,0-15.3,6.9-15.3,15.3C148.3,111.3,155.2,118.2,163.6,118.2z M98.3,167.9V37.8c0-13.9,11.3-25.3,25.3-25.3h241.2 c13.9,0,25.3,11.3,25.3,25.3v130.1c0,13.9-11.3,25.3-25.3,25.3H123.6C109.7,193.1,98.3,181.8,98.3,167.9z M119.9,141.7 c1.5-0.3,3-0.4,4.5-0.4c14.1,0,25.6,11.5,25.6,25.6c0,1.6-0.2,3.2-0.4,4.7h187.2c-0.1-1-0.2-2.1-0.2-3.2 c0-14.1,11.5-25.6,25.6-25.6c2.2,0,4.3,0.3,6.3,0.8V65.1c-2,0.5-4.1,0.8-6.3,0.8c-14.1,0-25.6-11.5-25.6-25.6 c0-2.2,0.3-4.2,0.8-6.2H149.5c0.3,1.5,0.4,3.1,0.4,4.7c0,14.1-11.5,25.6-25.6,25.6c-1.5,0-3-0.1-4.5-0.4v77.7H119.9z M188.7,102.8 c0-30.6,24.8-55.5,55.5-55.5s55.5,24.8,55.5,55.5c0,30.6-24.8,55.5-55.5,55.5S188.7,133.5,188.7,102.8z M212.1,102.8 c0,17.7,14.4,32.1,32.1,32.1s32.1-14.4,32.1-32.1s-14.4-32.1-32.1-32.1S212.1,85.1,212.1,102.8z"/> </g> </g>
</svg>